<?xml version="1.0" standalone="no"?>
<!DOCTYPE svg PUBLIC "-//W3C//DTD SVG 20010904//EN"
 "http://www.w3.org/TR/2001/REC-SVG-20010904/DTD/svg10.dtd">
<svg version="1.0" xmlns="http://www.w3.org/2000/svg"
 width="914.000000pt" height="914.000000pt" viewBox="0 0 914.000000 914.000000"
 preserveAspectRatio="xMidYMid meet">
<metadata>
Created by potrace 1.14, written by Peter Selinger 2001-2017
</metadata>
<g transform="translate(0.000000,914.000000) scale(0.100000,-0.100000)"
fill="#000000" stroke="none">
<path d="M5603 7913 c-40 -23 -129 -125 -158 -184 -33 -65 -77 -205 -84 -268
l-6 -53 -205 -85 c-113 -47 -299 -123 -415 -169 -115 -47 -239 -102 -275 -124
-68 -40 -146 -109 -194 -173 l-29 -37 -34 35 c-23 24 -43 35 -62 35 -16 0 -55
12 -86 26 -87 40 -170 43 -286 10 -170 -48 -307 -131 -386 -235 -31 -40 -48
-53 -89 -65 -56 -17 -106 -64 -130 -122 -25 -59 -18 -80 42 -142 l55 -57 -6
-50 c-4 -27 -14 -79 -22 -115 -11 -43 -18 -131 -21 -262 -4 -191 -3 -201 23
-290 31 -109 100 -260 150 -328 l35 -47 -108 -5 c-90 -4 -115 -9 -158 -31
-115 -59 -204 -245 -204 -428 0 -106 12 -141 68 -191 42 -38 69 -48 186 -66
38 -6 73 -15 78 -20 5 -5 0 -28 -12 -57 -35 -81 -60 -195 -60 -272 l0 -74 44
-43 c25 -24 59 -49 76 -56 21 -9 29 -18 26 -29 -3 -9 -28 -106 -55 -216 -49
-196 -105 -392 -114 -402 -3 -2 -25 8 -50 24 -32 20 -82 76 -168 187 -143 185
-195 241 -299 318 -98 74 -169 108 -233 114 -71 7 -110 -18 -145 -94 -24 -53
-26 -67 -26 -187 0 -71 3 -137 5 -146 3 -9 27 -54 54 -100 58 -101 58 -100
139 -269 66 -138 117 -209 208 -289 26 -23 77 -83 113 -132 38 -52 79 -96 94
-102 15 -7 45 -27 66 -45 33 -29 36 -37 31 -65 -27 -134 -70 -387 -96 -565
-17 -118 -46 -304 -64 -415 -57 -335 -60 -386 -52 -852 3 -231 9 -484 13 -562
l6 -143 65 0 64 0 -6 77 c-10 116 -26 691 -26 910 0 202 16 364 65 655 14 80
39 240 55 355 26 181 70 441 85 511 3 12 12 22 20 22 18 0 19 5 3 29 -9 15 -3
53 32 195 l43 176 83 0 c104 0 218 -16 301 -41 l65 -20 -44 -28 c-62 -39 -92
-79 -155 -205 -79 -158 -251 -446 -287 -481 -17 -16 -52 -45 -79 -62 -51 -35
-56 -51 -31 -104 32 -71 43 -85 90 -114 44 -28 56 -30 153 -33 119 -4 130 10
23 29 -72 13 -80 24 -18 25 98 3 218 87 275 194 35 65 101 253 127 360 15 63
79 206 108 243 13 16 17 16 69 -12 31 -16 80 -35 110 -41 l55 -13 6 -48 c7
-51 13 -58 34 -37 9 9 12 7 12 -11 0 -13 36 -133 81 -267 89 -270 106 -301
217 -397 69 -60 187 -123 248 -133 50 -8 61 4 40 44 -9 18 -13 43 -10 64 4 23
0 49 -14 79 -11 24 -41 112 -66 194 -26 83 -58 185 -71 227 -13 42 -38 101
-54 130 -42 74 -135 184 -186 220 l-44 31 18 26 c10 14 24 42 30 63 19 59 48
61 253 18 79 -17 220 -40 313 -50 262 -30 542 -77 628 -105 99 -33 239 -94
347 -152 78 -42 166 -101 445 -297 57 -40 154 -124 225 -194 69 -69 161 -155
205 -192 99 -83 156 -145 220 -235 79 -112 122 -163 235 -275 69 -68 130 -141
175 -210 71 -106 120 -170 263 -339 44 -52 109 -142 145 -200 37 -58 107 -156
157 -216 50 -61 132 -167 183 -237 l91 -128 94 0 c72 0 91 3 86 13 -31 49
-288 385 -343 446 -38 42 -103 129 -146 195 -85 129 -133 190 -247 311 -41 44
-112 134 -158 200 -55 80 -125 163 -210 250 -70 72 -163 177 -206 235 -96 129
-157 195 -254 274 -41 33 -128 111 -193 173 -133 127 -247 216 -369 288 -46
27 -116 71 -157 99 -40 27 -128 78 -195 112 -66 35 -118 64 -113 64 17 0 218
-106 297 -158 47 -30 130 -82 184 -114 123 -73 236 -160 369 -286 56 -53 131
-121 167 -151 120 -100 172 -155 275 -291 58 -77 150 -180 212 -240 80 -77
131 -138 192 -228 46 -68 131 -174 188 -235 71 -75 139 -163 208 -268 57 -86
133 -190 169 -230 36 -41 130 -159 208 -264 l143 -190 393 -3 393 -2 -3 42 -3
41 -65 22 c-98 33 -155 65 -268 150 -146 111 -216 189 -283 321 -88 171 -94
193 -94 379 0 120 5 180 18 238 21 88 97 246 154 322 84 111 369 293 488 312
l50 8 3 715 c2 564 0 715 -10 722 -10 6 -10 8 0 8 8 0 12 17 12 50 0 57 2 56
-95 40 -33 -5 -247 -12 -475 -15 -228 -3 -478 -10 -555 -15 -77 -6 -246 -17
-375 -25 -349 -23 -595 -43 -785 -65 -439 -51 -520 -62 -665 -91 -85 -17 -225
-37 -310 -44 -264 -25 -345 -34 -667 -80 -267 -39 -335 -45 -475 -45 -102 0
-195 6 -248 15 -47 9 -111 16 -142 17 -35 0 -58 5 -58 12 0 26 -60 134 -91
163 -78 74 -213 88 -233 25 -5 -14 -15 -16 -51 -14 -43 4 -48 1 -93 -43 -54
-54 -63 -54 -143 4 -82 59 -294 194 -321 203 -16 6 -28 11 -28 13 0 2 24 90
54 197 29 106 61 225 71 264 l18 72 59 4 c72 5 108 36 139 117 23 61 59 234
59 281 0 35 -2 34 47 16 122 -47 225 -50 310 -9 119 57 271 243 281 343 9 99
-44 222 -142 325 l-66 70 16 40 c33 83 14 244 -39 319 -20 29 -87 65 -121 66
-10 0 -31 10 -46 23 -15 12 -35 27 -45 32 -16 10 -15 22 18 185 51 248 123
552 152 641 44 132 167 348 276 485 59 75 162 147 275 193 43 18 167 71 275
117 535 228 771 307 1048 350 126 20 451 23 581 6 47 -7 137 -17 200 -23 94
-9 149 -22 300 -71 107 -35 223 -80 275 -107 50 -26 105 -53 123 -59 18 -6 72
-35 120 -65 48 -30 116 -67 152 -82 36 -16 66 -29 67 -30 1 -1 -35 -39 -81
-86 -63 -64 -92 -102 -120 -161 -20 -43 -41 -80 -47 -83 -5 -4 -9 -13 -9 -21
0 -29 30 -12 77 42 121 142 150 168 368 313 296 199 369 234 519 248 51 5 69
2 95 -13 48 -28 73 -75 73 -137 1 -47 -10 -77 -82 -230 -45 -97 -98 -195 -117
-217 -33 -39 -36 -40 -54 -24 -17 15 -20 15 -43 -4 -25 -19 -25 -20 -6 -37 19
-18 19 -19 -48 -89 -123 -131 -152 -197 -89 -204 23 -3 45 13 133 95 57 54
111 99 118 101 22 5 215 -208 429 -472 36 -44 91 -136 145 -241 l87 -170 3 79
c3 77 1 83 -41 170 -24 50 -64 118 -89 151 -61 81 -289 338 -400 451 -60 61
-86 94 -78 99 39 24 199 341 230 456 15 53 7 147 -16 192 -23 45 -72 95 -116
118 -50 26 -170 25 -270 0 -103 -27 -196 -75 -370 -194 l-146 -100 -304 151
c-166 83 -348 167 -403 187 -102 38 -234 75 -267 75 -34 0 -18 20 40 50 64 34
88 61 121 140 25 59 25 128 0 183 -20 43 -34 32 -47 -40 -26 -137 -64 -191
-178 -254 -65 -35 -78 -39 -150 -40 -43 0 -137 5 -209 11 -129 12 -397 7 -497
-9 -45 -7 -46 -7 -36 12 34 65 -49 248 -144 318 -49 34 -115 39 -165 12z m113
-105 c43 -47 60 -77 84 -149 12 -35 28 -74 36 -86 13 -21 12 -23 -8 -27 -75
-13 -263 -60 -322 -80 l-68 -23 5 36 c7 52 62 191 97 242 48 72 97 119 123
119 13 0 36 -14 53 -32z m-1690 -1008 c32 -11 77 -33 99 -47 22 -15 41 -28 43
-29 1 0 -22 -43 -53 -95 -30 -51 -69 -130 -87 -174 -36 -93 -112 -394 -163
-643 -19 -95 -41 -182 -48 -193 -11 -18 -18 -20 -79 -14 -125 13 -238 -31
-295 -114 -16 -22 -31 -40 -35 -41 -3 0 -21 44 -40 98 -33 97 -33 97 -32 282
1 134 5 203 17 252 9 37 21 97 27 134 6 38 16 75 23 83 7 8 12 46 12 91 0 66
5 85 33 143 54 108 182 203 347 257 107 35 152 37 231 10z m-263 -1350 c198
-29 280 -95 302 -244 9 -59 2 -78 -40 -100 -29 -16 -47 -18 -107 -13 -125 11
-336 83 -325 111 4 9 -7 22 -29 35 -33 19 -46 41 -60 96 -5 18 3 33 33 66 52
56 103 67 226 49z m-53 -412 c74 -20 175 -40 225 -44 l89 -7 85 -90 c101 -105
97 -98 117 -176 l15 -61 -28 -52 c-39 -72 -112 -149 -173 -182 -45 -25 -59
-27 -102 -22 -28 4 -80 18 -117 32 -36 14 -131 41 -211 61 -80 19 -167 43
-195 53 -27 10 -95 25 -150 35 -185 31 -205 46 -205 150 0 76 21 145 69 227
51 86 75 102 174 109 172 13 263 5 407 -33z m-200 -624 c58 -14 110 -27 117
-29 9 -3 8 -11 -2 -33 -17 -34 -55 -211 -55 -257 0 -42 -30 -69 -67 -62 -15 4
-49 10 -74 15 -53 10 -105 46 -115 80 -3 12 1 55 10 95 16 72 66 217 75 217 3
0 53 -12 111 -26z m-954 -604 c111 -75 182 -142 296 -277 143 -170 234 -263
260 -263 10 0 23 -11 30 -25 9 -20 5 -45 -24 -142 -20 -65 -53 -185 -74 -268
-20 -82 -39 -152 -41 -154 -2 -3 -16 7 -31 21 -15 14 -39 33 -54 42 -16 11
-25 23 -21 32 3 8 -1 14 -11 14 -8 0 -20 10 -27 21 -6 12 -64 77 -130 145
l-118 123 -117 238 -116 238 4 120 c3 72 10 131 19 149 12 26 17 28 59 24 31
-3 63 -16 96 -38z m834 -590 c0 -11 274 -190 310 -203 11 -4 11 -6 -3 -6 -10
-1 -49 18 -85 42 -37 24 -93 58 -124 76 -49 28 -188 151 -188 167 0 3 20 -11
45 -32 25 -20 45 -40 45 -44z m5613 43 c-7 -2 -19 -2 -25 0 -7 3 -2 5 12 5 14
0 19 -2 13 -5z m-116 -9 c-3 -3 -12 -4 -19 -1 -8 3 -5 6 6 6 11 1 17 -2 13 -5z
m-549 -11 c-10 -2 -26 -2 -35 0 -10 3 -2 5 17 5 19 0 27 -2 18 -5z m-215 -10
c-7 -2 -19 -2 -25 0 -7 3 -2 5 12 5 14 0 19 -2 13 -5z m-135 -10 c-10 -2 -26
-2 -35 0 -10 3 -2 5 17 5 19 0 27 -2 18 -5z m-100 -10 c-10 -2 -26 -2 -35 0
-10 3 -2 5 17 5 19 0 27 -2 18 -5z m-110 -10 c-10 -2 -28 -2 -40 0 -13 2 -5 4
17 4 22 1 32 -1 23 -4z m-145 -10 c-13 -2 -35 -2 -50 0 -16 2 -5 4 22 4 28 0
40 -2 28 -4z m-150 -10 c-13 -2 -35 -2 -50 0 -16 2 -5 4 22 4 28 0 40 -2 28
-4z m-135 -10 c-10 -2 -28 -2 -40 0 -13 2 -5 4 17 4 22 1 32 -1 23 -4z m-155
-10 c-13 -2 -33 -2 -45 0 -13 2 -3 4 22 4 25 0 35 -2 23 -4z m-135 -10 c-10
-2 -26 -2 -35 0 -10 3 -2 5 17 5 19 0 27 -2 18 -5z m-3158 -6 c0 -2 -10 -12
-22 -23 l-23 -19 19 23 c18 21 26 27 26 19z m3063 -4 c-7 -2 -21 -2 -30 0 -10
3 -4 5 12 5 17 0 24 -2 18 -5z m-85 -10 c-10 -2 -26 -2 -35 0 -10 3 -2 5 17 5
19 0 27 -2 18 -5z m-2810 -31 c25 -16 72 -90 72 -113 0 -8 -9 4 -19 26 -20 46
-77 99 -97 91 -7 -3 -15 2 -18 10 -5 12 -1 14 17 8 12 -4 32 -14 45 -22z
m2690 21 c-10 -2 -26 -2 -35 0 -10 3 -2 5 17 5 19 0 27 -2 18 -5z m-95 -10
c-7 -2 -19 -2 -25 0 -7 3 -2 5 12 5 14 0 19 -2 13 -5z m-90 -10 c-7 -2 -19 -2
-25 0 -7 3 -2 5 12 5 14 0 19 -2 13 -5z m-2725 -28 c-6 -14 -13 -23 -15 -21
-5 5 15 46 22 46 3 0 -1 -11 -7 -25z m2645 18 c-7 -2 -19 -2 -25 0 -7 3 -2 5
12 5 14 0 19 -2 13 -5z m-70 -10 c-7 -2 -21 -2 -30 0 -10 3 -4 5 12 5 17 0 24
-2 18 -5z m-60 -10 c-7 -2 -21 -2 -30 0 -10 3 -4 5 12 5 17 0 24 -2 18 -5z
m-60 -10 c-7 -2 -19 -2 -25 0 -7 3 -2 5 12 5 14 0 19 -2 13 -5z m-56 -9 c-3
-3 -12 -4 -19 -1 -8 3 -5 6 6 6 11 1 17 -2 13 -5z m-2879 -11 c-26 -2 -71 -2
-100 0 -29 2 -8 3 47 3 55 0 79 -1 53 -3z m2835 0 c-7 -2 -19 -2 -25 0 -7 3
-2 5 12 5 14 0 19 -2 13 -5z m-2620 -38 c58 -23 129 -66 122 -73 -2 -2 -17 5
-34 17 -46 33 -115 61 -189 77 -67 14 -67 14 -12 8 30 -3 81 -16 113 -29z
m2570 28 c-7 -2 -19 -2 -25 0 -7 3 -2 5 12 5 14 0 19 -2 13 -5z m-60 -10 c-7
-2 -19 -2 -25 0 -7 3 -2 5 12 5 14 0 19 -2 13 -5z m-70 -10 c-7 -2 -19 -2 -25
0 -7 3 -2 5 12 5 14 0 19 -2 13 -5z m-120 -10 c-7 -2 -21 -2 -30 0 -10 3 -4 5
12 5 17 0 24 -2 18 -5z m-110 -10 c-7 -2 -21 -2 -30 0 -10 3 -4 5 12 5 17 0
24 -2 18 -5z m-80 -10 c-7 -2 -21 -2 -30 0 -10 3 -4 5 12 5 17 0 24 -2 18 -5z
m-1646 -25 c-3 -8 -6 -5 -6 6 -1 11 2 17 5 13 3 -3 4 -12 1 -19z m1556 15 c-7
-2 -19 -2 -25 0 -7 3 -2 5 12 5 14 0 19 -2 13 -5z m-1483 -123 c-11 -43 -63
-110 -85 -110 -7 0 4 17 25 38 39 39 59 88 62 157 l1 40 4 -42 c2 -23 -1 -60
-7 -83z m1393 113 c-7 -2 -21 -2 -30 0 -10 3 -4 5 12 5 17 0 24 -2 18 -5z
m-1173 -23 c47 -16 50 -19 25 -19 -17 -1 -44 -5 -61 -10 -29 -8 -30 -8 -26 20
2 16 5 29 6 29 0 0 26 -9 56 -20z m1103 13 c-7 -2 -21 -2 -30 0 -10 3 -4 5 12
5 17 0 24 -2 18 -5z m-70 -10 c-7 -2 -21 -2 -30 0 -10 3 -4 5 12 5 17 0 24 -2
18 -5z m-70 -10 c-7 -2 -21 -2 -30 0 -10 3 -4 5 12 5 17 0 24 -2 18 -5z m-80
-10 c-7 -2 -19 -2 -25 0 -7 3 -2 5 12 5 14 0 19 -2 13 -5z m-1253 -17 c0 -22
-80 -136 -95 -136 -19 0 -28 17 -14 26 8 4 9 3 5 -4 -4 -7 -1 -12 6 -12 15 0
88 106 88 127 0 7 2 13 5 13 3 0 5 -6 5 -14z m463 7 c-7 -2 -19 -2 -25 0 -7 3
-2 5 12 5 14 0 19 -2 13 -5z m724 1 c-3 -3 -12 -4 -19 -1 -8 3 -5 6 6 6 11 1
17 -2 13 -5z m-84 -11 c-7 -2 -19 -2 -25 0 -7 3 -2 5 12 5 14 0 19 -2 13 -5z
m-80 -10 c-7 -2 -19 -2 -25 0 -7 3 -2 5 12 5 14 0 19 -2 13 -5z m-349 -13
c-11 -4 -36 -5 -55 0 -31 7 -29 8 21 8 39 1 49 -2 34 -8z m259 3 c-7 -2 -19
-2 -25 0 -7 3 -2 5 12 5 14 0 19 -2 13 -5z m-1098 -53 c16 -16 24 -30 18 -30
-7 0 -21 14 -33 30 -12 17 -20 30 -18 30 3 0 17 -13 33 -30z m236 3 c-12 -20
-14 -14 -5 12 4 9 9 14 11 11 3 -2 0 -13 -6 -23z m726 21 c-3 -3 -12 -4 -19
-1 -8 3 -5 6 6 6 11 1 17 -2 13 -5z m210 -20 c-3 -3 -12 -4 -19 -1 -8 3 -5 6
6 6 11 1 17 -2 13 -5z m-1297 -18 c0 -2 -7 -7 -16 -10 -8 -3 -12 -2 -9 4 6 10
25 14 25 6z m24 -114 c-47 -58 -60 -72 -49 -52 4 8 23 34 42 58 l34 42 -20 26
c-12 15 -21 32 -21 38 0 6 11 -6 26 -27 l25 -37 -37 -48z m306 73 c-14 -23
-17 -35 -9 -35 7 0 10 -2 7 -5 -3 -3 -12 -3 -21 1 -14 5 -12 11 11 40 35 44
39 43 12 -1z m1197 29 c-3 -3 -12 -4 -19 -1 -8 3 -5 6 6 6 11 1 17 -2 13 -5z
m-1615 -51 c-26 -27 -53 -57 -60 -68 -7 -11 -6 -6 2 11 13 27 88 104 101 104
3 0 -16 -21 -43 -47z m1775 31 c-3 -3 -12 -4 -19 -1 -8 3 -5 6 6 6 11 1 17 -2
13 -5z m80 -20 c-3 -3 -12 -4 -19 -1 -8 3 -5 6 6 6 11 1 17 -2 13 -5z m70 -20
c-3 -3 -12 -4 -19 -1 -8 3 -5 6 6 6 11 1 17 -2 13 -5z m43 -14 c8 -5 11 -10 5
-10 -5 0 -17 5 -25 10 -8 5 -10 10 -5 10 6 0 17 -5 25 -10z m50 -20 c8 -5 11
-10 5 -10 -5 0 -17 5 -25 10 -8 5 -10 10 -5 10 6 0 17 -5 25 -10z m60 -25 c14
-8 21 -14 15 -14 -5 0 -21 6 -35 14 -14 8 -20 14 -15 14 6 0 21 -6 35 -14z
m-1495 -25 c3 -5 0 -7 -9 -4 -8 3 -24 -4 -35 -15 -13 -13 -21 -16 -24 -8 -8
22 55 47 68 27z m105 -97 c0 -8 -9 0 -50 45 l-45 47 48 -45 c26 -24 47 -45 47
-47z m-820 -34 c-65 -128 -214 -393 -246 -436 -28 -37 -69 -68 -104 -77 -22
-6 -21 -4 6 11 53 31 70 47 106 98 41 59 178 303 239 427 24 48 45 86 47 84 2
-2 -20 -50 -48 -107z m178 76 c-6 -14 -13 -23 -15 -21 -5 5 15 46 22 46 3 0
-1 -11 -7 -25z m502 -30 c0 -5 -5 -3 -10 5 -5 8 -10 20 -10 25 0 6 5 3 10 -5
5 -8 10 -19 10 -25z m-529 -36 c-5 -13 -10 -19 -10 -12 -1 15 10 45 15 40 3
-2 0 -15 -5 -28z m740 -91 c43 -85 35 -85 -10 -1 -21 40 -42 79 -47 86 -5 7
-1 4 10 -7 10 -12 31 -47 47 -78z m-764 10 c-3 -8 -6 -5 -6 6 -1 11 2 17 5 13
3 -3 4 -12 1 -19z m-10 -50 c-3 -8 -6 -5 -6 6 -1 11 2 17 5 13 3 -3 4 -12 1
-19z m637 -48 c3 -14 -3 -7 -13 15 -11 22 -20 45 -20 50 0 15 26 -37 33 -65z
m183 -42 c-3 -8 -6 -5 -6 6 -1 11 2 17 5 13 3 -3 4 -12 1 -19z m-148 -50 c11
-34 19 -63 17 -65 -2 -3 -12 20 -21 49 -10 29 -20 59 -23 66 -2 6 -2 12 1 12
3 0 15 -28 26 -62z m158 10 c-3 -8 -6 -5 -6 6 -1 11 2 17 5 13 3 -3 4 -12 1
-19z m10 -40 c-3 -8 -6 -5 -6 6 -1 11 2 17 5 13 3 -3 4 -12 1 -19z m10 -40
c-3 -8 -6 -5 -6 6 -1 11 2 17 5 13 3 -3 4 -12 1 -19z m-127 -70 c14 -39 39
-79 69 -111 55 -59 131 -114 131 -95 0 8 5 5 11 -5 18 -31 2 -31 -43 -2 -101
67 -161 145 -193 253 -14 46 3 19 25 -40z m149 2 c0 -9 -4 -8 -9 5 -5 11 -9
27 -9 35 0 9 4 8 9 -5 5 -11 9 -27 9 -35z m8 -42 c-3 -8 -6 -5 -6 6 -1 11 2
17 5 13 3 -3 4 -12 1 -19z m-997 -22 c0 -2 -8 -10 -17 -17 -16 -13 -17 -12 -4
4 13 16 21 21 21 13z m1019 -46 c0 -9 -4 -8 -9 5 -5 11 -9 27 -9 35 0 9 4 8 9
-5 5 -11 9 -27 9 -35z m-1084 -20 c-3 -5 -16 -15 -28 -21 -19 -9 -19 -8 3 10
28 23 34 26 25 11z m1104 -50 c0 -9 -4 -8 -9 5 -5 11 -9 27 -9 35 0 9 4 8 9
-5 5 -11 9 -27 9 -35z m-1395 24 c3 -8 2 -12 -4 -9 -6 3 -10 10 -10 16 0 14 7
11 14 -7z"/>
<path d="M3620 5440 c-39 -10 -100 -70 -100 -99 0 -40 21 -72 65 -99 25 -15
45 -34 45 -43 0 -19 22 -29 140 -64 114 -35 213 -44 235 -21 9 9 23 16 30 16
21 0 26 31 16 86 -14 73 -25 95 -68 135 -66 63 -268 113 -363 89z"/>
<path d="M8340 7081 c-74 -25 -141 -63 -225 -130 -88 -71 -275 -257 -275 -275
0 -7 5 -27 11 -45 14 -40 30 -40 145 0 49 17 138 42 199 56 60 13 118 32 127
40 25 23 22 50 -7 69 -23 15 -29 14 -87 -5 -35 -11 -83 -23 -108 -27 l-45 -7
40 43 c46 48 165 129 282 191 65 35 83 49 83 66 0 44 -51 53 -140 24z"/>
<path d="M573 6838 c-45 -23 -64 -48 -35 -48 21 0 92 47 92 60 0 14 -9 12 -57
-12z"/>
<path d="M707 6813 c-9 -9 -7 -142 3 -173 l8 -25 1 26 c1 14 4 60 7 102 6 71
1 91 -19 70z"/>
<path d="M422 6726 c-30 -29 -35 -37 -24 -48 11 -11 19 -6 47 27 19 22 34 43
35 48 0 16 -22 5 -58 -27z"/>
<path d="M279 6563 c-29 -28 -48 -53 -42 -56 13 -8 55 24 84 64 35 49 14 45
-42 -8z"/>
<path d="M727 6543 c-11 -19 -19 -123 -9 -123 15 0 36 110 24 122 -5 5 -12 6
-15 1z"/>
<path d="M117 6372 c-59 -60 -66 -72 -43 -72 18 0 119 108 111 120 -3 6 -7 10
-8 10 -2 0 -28 -26 -60 -58z"/>
<path d="M716 6324 c-9 -24 -7 -104 3 -104 7 0 21 69 21 106 0 19 -16 18 -24
-2z"/>
<path d="M776 6292 c-7 -11 18 -35 27 -25 4 3 27 -2 52 -11 59 -23 78 -16 32
13 -41 25 -101 38 -111 23z"/>
<path d="M975 6280 c-3 -6 0 -12 7 -13 7 -2 42 -13 77 -25 70 -24 89 -22 51 6
-50 35 -122 53 -135 32z"/>
<path d="M0 6201 c0 -25 6 -27 13 -6 4 8 2 17 -3 20 -6 4 -10 -3 -10 -14z"/>
<path d="M1232 6208 c2 -6 15 -13 27 -15 13 -2 44 -12 68 -23 55 -24 53 -5 -3
27 -42 24 -98 31 -92 11z"/>
<path d="M5630 6118 c-19 -5 -42 -9 -50 -9 -320 16 -378 10 -507 -54 -117 -58
-174 -135 -331 -450 -85 -170 -122 -327 -123 -525 -1 -132 17 -194 90 -315
151 -248 384 -457 653 -585 135 -64 230 -83 418 -84 144 -1 146 -1 210 31 51
25 100 66 227 190 153 149 165 163 202 243 50 107 115 302 135 402 21 100 21
306 1 423 -11 59 -29 118 -54 171 -50 106 -185 306 -247 368 -66 65 -164 134
-222 156 -113 43 -315 62 -402 38z m-76 -113 c34 -16 83 -29 141 -35 256 -30
294 -40 389 -112 74 -55 125 -115 212 -246 120 -181 150 -295 141 -540 -5
-144 -6 -150 -52 -282 -77 -218 -94 -247 -239 -399 -71 -75 -150 -150 -175
-167 -69 -47 -136 -57 -277 -44 -152 14 -189 23 -304 77 -151 70 -272 157
-390 280 -176 182 -270 346 -278 482 -6 100 21 283 59 394 32 98 172 369 229
444 64 86 172 140 325 162 113 16 164 13 219 -14z"/>
<path d="M5292 5519 c-55 -27 -116 -98 -136 -156 -26 -75 -31 -190 -13 -254
32 -109 96 -166 204 -184 69 -11 166 33 254 115 70 67 90 220 40 317 -11 23
-21 58 -21 78 0 19 -4 35 -10 35 -5 0 -10 -7 -10 -16 0 -11 -12 -5 -43 20 -82
67 -185 84 -265 45z m156 -201 c-3 -62 -4 -63 -33 -66 -16 -2 -37 -10 -46 -18
-14 -12 -18 -12 -28 -1 -8 11 -9 27 0 65 10 47 13 52 52 66 23 8 46 15 50 15
4 1 7 -27 5 -61z"/>
<path d="M1460 6112 c0 -4 16 -14 35 -21 19 -7 35 -15 35 -19 0 -4 12 -20 26
-37 l25 -30 -6 30 c-7 38 -58 85 -90 85 -14 0 -25 -4 -25 -8z"/>
<path d="M1660 5984 c0 -3 18 -26 39 -51 22 -24 48 -68 57 -96 11 -31 20 -45
22 -34 10 47 -67 187 -104 187 -8 0 -14 -3 -14 -6z"/>
<path d="M700 5731 c-7 -14 -7 -22 1 -26 13 -8 15 -6 23 23 9 27 -9 30 -24 3z"/>
<path d="M1850 5738 c1 -17 40 -192 44 -196 10 -9 5 91 -7 142 -7 27 -18 51
-24 54 -7 2 -13 2 -13 0z"/>
<path d="M21 5718 c1 -18 27 -85 28 -73 1 5 21 -11 46 -35 53 -52 68 -49 24 6
-17 21 -42 56 -55 77 -24 37 -45 49 -43 25z"/>
<path d="M796 5691 c-10 -16 19 -28 57 -24 39 5 48 17 21 27 -23 9 -72 7 -78
-3z"/>
<path d="M1493 5615 c-81 -41 -155 -75 -164 -75 -8 0 -26 11 -39 25 -13 14
-29 25 -37 25 -21 0 -15 -38 7 -45 28 -9 25 -24 -7 -31 -133 -28 -212 -64
-372 -167 -92 -60 -95 -63 -128 -135 l-33 -73 10 -117 c17 -181 42 -317 96
-516 19 -72 46 -195 60 -275 29 -164 43 -201 78 -201 18 0 32 13 54 48 16 26
33 58 37 72 5 14 37 82 72 152 35 70 72 152 84 183 l20 54 61 -32 c33 -18 99
-66 147 -107 47 -41 105 -90 128 -108 30 -24 57 -62 97 -138 89 -167 99 -206
93 -354 -8 -191 -24 -239 -193 -564 -141 -270 -255 -525 -434 -966 -46 -113
-87 -209 -91 -214 -8 -10 -39 85 -39 121 0 26 -18 31 -26 8 -9 -22 14 -104 37
-137 l20 -28 -82 -205 c-45 -113 -85 -205 -89 -205 -4 0 -27 9 -51 20 -27 12
-66 20 -102 20 -77 0 -226 -45 -271 -82 -43 -35 -109 -121 -165 -214 -126
-208 -134 -529 -19 -759 79 -158 180 -270 293 -327 33 -17 74 -41 91 -54 82
-63 186 -83 304 -59 127 27 170 43 241 92 29 20 129 133 129 146 0 5 14 29 32
55 18 26 31 47 29 47 -6 0 19 90 31 110 6 11 12 77 14 153 2 106 -1 148 -17
205 -10 40 -24 80 -29 89 -6 10 -10 25 -10 33 0 8 -5 15 -12 15 -6 0 -9 3 -5
6 5 6 -46 97 -100 176 -19 27 -22 40 -15 55 21 39 52 113 52 125 0 36 131 322
144 313 3 -3 4 -2 2 1 -5 7 13 51 71 174 25 52 49 104 54 115 5 11 13 27 19
35 21 33 140 290 140 304 0 28 23 29 46 3 50 -58 76 -10 29 53 -27 37 -30 51
-15 78 9 17 22 48 55 132 39 99 119 260 130 260 18 0 61 -51 91 -110 26 -50
29 -53 32 -28 2 15 -8 48 -22 75 -33 62 -48 81 -74 90 -19 8 -18 13 39 128 32
66 59 126 59 133 0 7 5 10 11 6 7 -4 10 -1 7 7 -2 7 6 43 19 79 13 36 26 76
29 90 2 14 9 36 14 50 19 52 48 176 48 208 1 44 11 87 28 120 8 15 14 33 14
40 0 6 5 12 11 12 5 0 8 4 5 8 -3 5 -1 26 5 47 28 99 42 212 34 274 -4 30 -16
80 -27 111 -26 70 -114 202 -188 283 -118 127 -109 111 -103 176 4 40 2 61 -7
66 -18 11 -28 -12 -24 -59 l3 -41 -16 30 c-21 40 -51 68 -160 149 -51 37 -93
73 -93 79 0 6 -3 7 -6 4 -4 -4 -19 4 -34 16 -16 12 -51 38 -79 57 -28 19 -61
42 -72 50 l-21 16 25 54 c14 30 37 82 52 115 37 82 61 143 102 260 50 144 50
143 18 155 -14 5 -28 10 -30 10 -2 0 -70 -34 -152 -75z m-576 -4457 c80 -37
121 -130 104 -237 -16 -98 -28 -131 -58 -164 -64 -67 -117 -72 -218 -23 -75
36 -147 102 -165 151 -12 31 -6 125 11 181 11 34 71 98 109 113 37 16 167 3
217 -21z"/>
<path d="M1002 5649 c3 -9 24 -15 63 -17 75 -3 62 18 -16 26 -41 4 -51 2 -47
-9z"/>
<path d="M674 5593 c-15 -81 -8 -150 13 -129 13 12 17 166 5 166 -6 0 -14 -17
-18 -37z"/>
<path d="M190 5507 c0 -7 18 -32 40 -56 31 -33 40 -38 40 -23 0 10 -12 35 -27
55 -28 37 -53 48 -53 24z"/>
<path d="M1943 5359 c8 -120 27 -143 27 -33 0 87 -7 124 -23 124 -6 0 -8 -31
-4 -91z"/>
<path d="M648 5365 c-11 -18 -40 -186 -34 -201 11 -28 24 -4 36 65 12 69 11
155 -2 136z"/>
<path d="M300 5321 c0 -11 68 -65 93 -74 27 -10 20 6 -21 46 -35 35 -72 49
-72 28z"/>
<path d="M440 5226 c0 -15 84 -96 100 -96 19 0 10 16 -38 63 -50 49 -62 56
-62 33z"/>
<path d="M1955 5028 c-3 -40 -8 -85 -11 -100 -3 -16 -1 -28 4 -28 11 0 26 60
38 148 5 43 4 52 -9 52 -11 0 -17 -17 -22 -72z"/>
<path d="M2310 4874 c0 -11 9 -32 20 -49 11 -16 41 -70 67 -120 25 -49 56
-106 68 -125 12 -19 25 -45 29 -57 4 -12 30 -64 58 -115 28 -51 66 -120 85
-153 18 -33 33 -53 33 -44 0 23 -36 102 -154 339 -103 207 -159 304 -189 329
-15 12 -17 11 -17 -5z"/>
<path d="M2220 4807 c0 -7 27 -57 59 -110 33 -54 72 -123 86 -155 27 -59 138
-246 161 -271 74 -81 -87 239 -239 477 -44 68 -67 88 -67 59z"/>
<path d="M1380 4256 c0 -74 12 -106 24 -63 3 12 6 48 6 80 0 44 -3 57 -15 57
-12 0 -15 -15 -15 -74z"/>
<path d="M1387 4064 c-11 -11 -8 -164 3 -164 18 0 32 161 14 167 -5 2 -13 0
-17 -3z"/>
<path d="M1370 3801 c-12 -24 -14 -169 -1 -155 11 11 31 105 31 144 0 34 -14
39 -30 11z"/>
<path d="M1350 3495 c0 -92 13 -114 24 -39 11 81 8 124 -9 124 -12 0 -15 -16
-15 -85z"/>
<path d="M1354 3329 c-11 -19 -15 -129 -4 -129 15 0 30 45 30 90 0 40 -13 59
-26 39z"/>
<path d="M1337 3123 c-9 -8 -9 -80 -1 -110 10 -36 21 -27 28 23 9 66 -5 110
-27 87z"/>
<path d="M1213 2926 c-66 -49 -82 -66 -60 -66 19 0 137 87 137 100 0 18 -15
11 -77 -34z"/>
<path d="M1071 2743 c-11 -24 -51 -177 -51 -195 0 -5 4 -8 9 -8 4 0 16 30 26
68 10 37 27 86 37 110 22 52 22 52 5 52 -8 0 -19 -12 -26 -27z"/>
<path d="M2115 2688 c-6 -16 72 -188 86 -188 10 0 -1 38 -36 120 -31 75 -42
90 -50 68z"/>
<path d="M993 2434 c-10 -26 -9 -85 2 -109 7 -15 10 -5 15 45 7 65 -3 100 -17
64z"/>
<path d="M2224 2300 c0 -62 4 -87 11 -79 5 5 10 44 10 86 0 44 -4 78 -10 80
-7 2 -11 -29 -11 -87z"/>
<path d="M1795 2300 c-4 -22 -11 -42 -16 -46 -14 -9 -10 -34 6 -34 19 0 33 27
41 79 5 33 4 41 -9 41 -10 0 -18 -14 -22 -40z"/>
<path d="M1604 2148 c-10 -16 8 -28 41 -28 34 0 85 18 85 30 0 9 -121 7 -126
-2z"/>
<path d="M2205 2098 c-2 -7 -9 -31 -15 -53 -7 -22 -25 -57 -42 -77 -23 -30
-25 -38 -12 -38 38 0 94 94 94 159 0 23 -18 29 -25 9z"/>
<path d="M5395 1946 c-323 -62 -626 -218 -767 -395 -79 -99 -113 -172 -113
-242 0 -70 15 -89 105 -132 62 -30 70 -32 185 -31 85 1 151 8 225 24 237 51
410 100 570 161 58 22 146 54 195 71 72 23 151 63 194 95 3 2 0 8 -5 13 -19
19 -154 -9 -344 -71 -336 -110 -434 -138 -555 -154 -27 -4 -86 -16 -130 -28
-106 -28 -278 -29 -319 -1 -23 14 -27 23 -22 46 10 50 103 173 189 253 101 92
131 111 267 165 253 101 364 131 570 155 73 9 90 14 90 29 0 41 -206 67 -335
42z"/>
<path d="M2091 1849 c-12 -11 -21 -25 -19 -31 7 -19 23 -11 41 20 22 37 11 42
-22 11z"/>
<path d="M1983 1733 c-12 -2 -27 -11 -33 -18 -10 -12 -9 -16 5 -21 18 -7 67
16 73 35 4 11 -5 12 -45 4z"/>
<path d="M1409 1695 c0 0 -2 -8 -4 -17 -4 -20 24 -47 51 -49 61 -6 88 13 37
26 -32 8 -55 24 -49 34 3 5 -26 10 -35 6z"/>
<path d="M1673 1643 c-8 -21 7 -33 44 -33 31 0 93 26 93 40 0 11 -133 5 -137
-7z"/>
<path d="M9033 1426 c-104 -62 -179 -126 -213 -181 -23 -37 -68 -189 -80 -268
-5 -33 -5 -85 1 -125 26 -190 89 -269 302 -382 l97 -52 0 90 0 91 -56 32 c-88
50 -139 105 -158 168 -21 72 -20 161 3 242 33 116 64 156 159 203 l52 26 0
110 c0 61 -1 110 -2 109 -2 0 -49 -29 -105 -63z"/>
<path d="M9087 1170 c-72 -64 -92 -108 -92 -210 0 -102 21 -154 93 -228 l47
-47 3 133 c1 72 1 191 0 263 l-3 131 -48 -42z"/>
</g>
</svg>
